{
    "asset" : {
        "generator" : "Khronos glTF Blender I/O v1.8.19",
        "version" : "2.0"
    },
    "scene" : 0,
    "scenes" : [
        {
            "name" : "Scene",
            "nodes" : [
                0
            ]
        }
    ],
    "nodes" : [
        {
            "mesh" : 0,
            "name" : "\u5766\u514b24"
        }
    ],
    "materials" : [
        {
            "doubleSided" : true,
            "name" : "Material #184",
            "pbrMetallicRoughness" : {
                "baseColorTexture" : {
                    "index" : 0
                },
                "metallicFactor" : 0.20472441613674164,
                "roughnessFactor" : 0.6889764070510864
            }
        },
        {
            "doubleSided" : true,
            "name" : "Material #27",
            "pbrMetallicRoughness" : {
                "baseColorTexture" : {
                    "index" : 1
                },
                "metallicFactor" : 0.21259844303131104,
                "roughnessFactor" : 0.7283464670181274
            }
        }
    ],
    "meshes" : [
        {
            "name" : "Obj3d66-4589395-8-416",
            "primitives" : [
                {
                    "attributes" : {
                        "POSITION" : 0,
                        "NORMAL" : 1,
                        "TEXCOORD_0" : 2,
                        "COLOR_0" : 3
                    },
                    "indices" : 4,
                    "material" : 0
                },
                {
                    "attributes" : {
                        "POSITION" : 5,
                        "NORMAL" : 6,
                        "TEXCOORD_0" : 7,
                        "COLOR_0" : 8
                    },
                    "indices" : 9,
                    "material" : 1
                }
            ]
        }
    ],
    "textures" : [
        {
            "sampler" : 0,
            "source" : 0
        },
        {
            "sampler" : 0,
            "source" : 1
        }
    ],
    "images" : [
        {
            "bufferView" : 5,
            "mimeType" : "image/jpeg",
            "name" : "3d66Model-4589395-files-46"
        },
        {
            "bufferView" : 11,
            "mimeType" : "image/jpeg",
            "name" : "3d66Model-4589395-files-12"
        }
    ],
    "accessors" : [
        {
            "bufferView" : 0,
            "componentType" : 5126,
            "count" : 5331,
            "max" : [
                1.091185450553894,
                2.082855463027954,
                2.3346915245056152
            ],
            "min" : [
                -1.091185450553894,
                0.12836483120918274,
                -2.3346915245056152
            ],
            "type" : "VEC3"
        },
        {
            "bufferView" : 1,
            "componentType" : 5126,
            "count" : 5331,
            "type" : "VEC3"
        },
        {
            "bufferView" : 2,
            "componentType" : 5126,
            "count" : 5331,
            "type" : "VEC2"
        },
        {
            "bufferView" : 3,
            "componentType" : 5123,
            "count" : 5331,
            "normalized" : true,
            "type" : "VEC4"
        },
        {
            "bufferView" : 4,
            "componentType" : 5123,
            "count" : 16116,
            "type" : "SCALAR"
        },
        {
            "bufferView" : 6,
            "componentType" : 5126,
            "count" : 2060,
            "max" : [
                1.0598150491714478,
                0.8146881461143494,
                2.3009040355682373
            ],
            "min" : [
                -1.0598150491714478,
                0,
                -1.5429885387420654
            ],
            "type" : "VEC3"
        },
        {
            "bufferView" : 7,
            "componentType" : 5126,
            "count" : 2060,
            "type" : "VEC3"
        },
        {
            "bufferView" : 8,
            "componentType" : 5126,
            "count" : 2060,
            "type" : "VEC2"
        },
        {
            "bufferView" : 9,
            "componentType" : 5123,
            "count" : 2060,
            "normalized" : true,
            "type" : "VEC4"
        },
        {
            "bufferView" : 10,
            "componentType" : 5123,
            "count" : 5736,
            "type" : "SCALAR"
        }
    ],
    "bufferViews" : [
        {
            "buffer" : 0,
            "byteLength" : 63972,
            "byteOffset" : 0
        },
        {
            "buffer" : 0,
            "byteLength" : 63972,
            "byteOffset" : 63972
        },
        {
            "buffer" : 0,
            "byteLength" : 42648,
            "byteOffset" : 127944
        },
        {
            "buffer" : 0,
            "byteLength" : 42648,
            "byteOffset" : 170592
        },
        {
            "buffer" : 0,
            "byteLength" : 32232,
            "byteOffset" : 213240
        },
        {
            "buffer" : 0,
            "byteLength" : 37882,
            "byteOffset" : 245472
        },
        {
            "buffer" : 0,
            "byteLength" : 24720,
            "byteOffset" : 283356
        },
        {
            "buffer" : 0,
            "byteLength" : 24720,
            "byteOffset" : 308076
        },
        {
            "buffer" : 0,
            "byteLength" : 16480,
            "byteOffset" : 332796
        },
        {
            "buffer" : 0,
            "byteLength" : 16480,
            "byteOffset" : 349276
        },
        {
            "buffer" : 0,
            "byteLength" : 11472,
            "byteOffset" : 365756
        },
        {
            "buffer" : 0,
            "byteLength" : 22427,
            "byteOffset" : 377228
        }
    ],
    "samplers" : [
        {
            "magFilter" : 9729,
            "minFilter" : 9987
        }
    ],
    "buffers" : [
        {
            "byteLength" : 399656,
            "uri" : "data:application/octet-stream;base64,"
        }
    ]
}
