{
    "asset" : {
        "generator" : "Khronos glTF Blender I/O v1.8.19",
        "version" : "2.0"
    },
    "scene" : 0,
    "scenes" : [
        {
            "name" : "Scene",
            "nodes" : [
                0
            ]
        }
    ],
    "nodes" : [
        {
            "mesh" : 0,
            "name" : "\u8f7f\u8f6624"
        }
    ],
    "materials" : [
        {
            "doubleSided" : true,
            "name" : "Mat3d66-1537423-24-5598",
            "pbrMetallicRoughness" : {
                "baseColorTexture" : {
                    "index" : 0
                },
                "metallicFactor" : 0,
                "roughnessFactor" : 0.7913385629653931
            }
        }
    ],
    "meshes" : [
        {
            "name" : "Obj3d66-1537423-51-959",
            "primitives" : [
                {
                    "attributes" : {
                        "POSITION" : 0,
                        "NORMAL" : 1,
                        "TEXCOORD_0" : 2
                    },
                    "indices" : 3,
                    "material" : 0
                }
            ]
        }
    ],
    "textures" : [
        {
            "sampler" : 0,
            "source" : 0
        }
    ],
    "images" : [
        {
            "bufferView" : 4,
            "mimeType" : "image/jpeg",
            "name" : "3d66Model-1537423-files-15"
        }
    ],
    "accessors" : [
        {
            "bufferView" : 0,
            "componentType" : 5126,
            "count" : 999,
            "max" : [
                0.9298652410507202,
                1.4402353763580322,
                2.363892078399658
            ],
            "min" : [
                -0.9298652410507202,
                -2.9802322387695312e-08,
                -2.363892078399658
            ],
            "type" : "VEC3"
        },
        {
            "bufferView" : 1,
            "componentType" : 5126,
            "count" : 999,
            "type" : "VEC3"
        },
        {
            "bufferView" : 2,
            "componentType" : 5126,
            "count" : 999,
            "type" : "VEC2"
        },
        {
            "bufferView" : 3,
            "componentType" : 5123,
            "count" : 3192,
            "type" : "SCALAR"
        }
    ],
    "bufferViews" : [
        {
            "buffer" : 0,
            "byteLength" : 11988,
            "byteOffset" : 0
        },
        {
            "buffer" : 0,
            "byteLength" : 11988,
            "byteOffset" : 11988
        },
        {
            "buffer" : 0,
            "byteLength" : 7992,
            "byteOffset" : 23976
        },
        {
            "buffer" : 0,
            "byteLength" : 6384,
            "byteOffset" : 31968
        },
        {
            "buffer" : 0,
            "byteLength" : 59138,
            "byteOffset" : 38352
        }
    ],
    "samplers" : [
        {
            "magFilter" : 9729,
            "minFilter" : 9987
        }
    ],
    "buffers" : [
        {
            "byteLength" : 97492,
            "uri" : "data:application/octet-stream;base64,"
        }
    ]
}
